HIERARCHY
ROOT Hips
{
	OFFSET -3.958830 18.904000 13.208200
	CHANNELS 6 Xposition Yposition Zposition Zrotation Yrotation Xrotation 
	JOINT LHipJoint
	{
		OFFSET 0.000000 0.000000 0.000000
		CHANNELS 3 Zrotation Yrotation Xrotation
		JOINT LeftUpLeg
		{
			OFFSET 1.800000 -1.400000 0.085000
			CHANNELS 3 Zrotation Yrotation Xrotation
			JOINT LeftLeg
			{
				OFFSET 2.215000 -6.000000 0.000000
				CHANNELS 3 Zrotation Yrotation Xrotation
				JOINT LeftFoot
				{
					OFFSET 2.500000 -6.900000 0.000000
					CHANNELS 3 Zrotation Yrotation Xrotation
					JOINT LeftToeBase
					{
						OFFSET 0.200000 -0.500000 1.950000
						CHANNELS 3 Zrotation Yrotation Xrotation
						End Site
						{
							OFFSET 0.000000 0.000000 0.000000
						}
					}
				}
			}
		}
	}
	JOINT RHipJoint
	{
		OFFSET 0.000000 0.000000 0.000000
		CHANNELS 3 Zrotation Yrotation Xrotation
		JOINT RightUpLeg
		{
			OFFSET -1.800000 -1.400000 0.085000
			CHANNELS 3 Zrotation Yrotation Xrotation
			JOINT RightLeg
			{
				OFFSET -2.215000 -6.000000 0.000000
				CHANNELS 3 Zrotation Yrotation Xrotation
				JOINT RightFoot
				{
					OFFSET -2.500000 -6.900000 0.000000
					CHANNELS 3 Zrotation Yrotation Xrotation
					JOINT RightToeBase
					{
						OFFSET -0.200000 -0.500000 1.950000
						CHANNELS 3 Zrotation Yrotation Xrotation
						End Site
						{
							OFFSET 0.000000 0.000000 0.000000
						}
					}
				}
			}
		}
	}
	JOINT LowerBack
	{
		OFFSET 0.000000 0.000000 0.000000
		CHANNELS 3 Zrotation Yrotation Xrotation
		JOINT Spine
		{
			OFFSET -0.087000 1.940000 -0.288900
			CHANNELS 3 Zrotation Yrotation Xrotation
			JOINT Spine1
			{
				OFFSET 0.000000 1.950000 0.060000
				CHANNELS 3 Zrotation Yrotation Xrotation
				JOINT Neck
				{
					OFFSET 0.000000 0.000000 0.000000
					CHANNELS 3 Zrotation Yrotation Xrotation
					JOINT Neck1
					{
						OFFSET 0.000000 1.600000 0.340000
						CHANNELS 3 Zrotation Yrotation Xrotation
						JOINT Head
						{
							OFFSET 0.000000 1.667000 -0.240000
							CHANNELS 3 Zrotation Yrotation Xrotation
							End Site
							{
								OFFSET 0.000000 0.000000 0.000000
							}
						}
					}
				}
				JOINT LeftShoulder
				{
					OFFSET 0.000000 0.000000 0.000000
					CHANNELS 3 Zrotation Yrotation Xrotation
					JOINT LeftArm
					{
						OFFSET 2.700000 1.550000 -0.730000
						CHANNELS 3 Zrotation Yrotation Xrotation
						JOINT LeftForeArm
						{
							OFFSET 5.450000 0.000000 0.000000
							CHANNELS 3 Zrotation Yrotation Xrotation
							JOINT LeftHand
							{
								OFFSET 3.450000 0.000000 0.000000
								CHANNELS 3 Zrotation Yrotation Xrotation
								JOINT LeftHandIndex1
								{
									OFFSET 0.750000 0.000000 0.000000
									CHANNELS 3 Zrotation Yrotation Xrotation
									End Site
									{
										OFFSET 0.000000 0.000000 0.000000
									}
								}
							}
						}
					}
				}
				JOINT RightShoulder
				{
					OFFSET 0.000000 0.000000 0.000000
					CHANNELS 3 Zrotation Yrotation Xrotation
					JOINT RightArm
					{
						OFFSET -2.700000 1.550000 -0.730000
						CHANNELS 3 Zrotation Yrotation Xrotation
						JOINT RightForeArm
						{
							OFFSET -5.450000 0.000000 0.000000
							CHANNELS 3 Zrotation Yrotation Xrotation
							JOINT RightHand
							{
								OFFSET -3.450000 0.000000 0.000000
								CHANNELS 3 Zrotation Yrotation Xrotation
								JOINT RightHandIndex1
								{
									OFFSET -0.750000 0.000000 0.000000
									CHANNELS 3 Zrotation Yrotation Xrotation
									End Site
									{
										OFFSET 0.000000 0.000000 0.000000
									}
								}
							}
						}
					}
				}
			}
		}
	}
}
MOTION
Frames: 8
Frame Time: 0.016667
-0.426210 16.654020 -1.759360 -7.441857 1.754430 3.707112 -15.068841 11.136382 4.379226 8.575080 -6.653859 -36.582008 -8.885016 14.512861 47.828293 0.528905 9.754759 1.268313 0.231760 0.075950 -0.049280 18.631972 -11.150486 2.214858 -2.141398 2.561904 -17.148585 5.667439 -7.916131 31.581409 -0.280593 -5.490399 2.552749 0.123430 0.668110 0.304290 -4.279243 1.617908 -7.421575 9.411834 5.467043 6.422589 3.969814 4.563983 8.706090 0.474248 6.345899 -7.820858 10.588104 -13.132902 26.459677 -4.461010 -8.680820 2.481520 -9.695188 -2.912664 1.952102 -38.308765 -10.842953 -2.540363 0.596920 -61.714865 -0.804230 -3.837249 3.553995 -0.021620 0.505990 -0.362150 0.308090 9.147374 0.692047 4.221708 54.562528 10.153116 -7.630969 0.516544 66.499209 -3.579266 1.730158 -1.948888 -0.135420 0.163780 0.055050 0.090990 
-0.414380 16.616020 -1.771350 -7.683576 1.775769 3.663598 -15.069183 10.930560 4.585434 10.217077 -6.708610 -37.799320 -10.344865 16.003936 49.419119 0.647927 10.409286 1.067299 0.219400 0.054430 -0.028490 18.662627 -11.048076 2.204549 -2.284445 2.871156 -17.778341 6.114936 -8.380176 32.946928 -0.323616 -5.681181 2.480567 0.117530 0.669350 0.290510 -4.328593 1.727444 -7.578378 10.276980 5.317881 7.032419 3.521095 4.648275 8.197655 0.654541 6.384177 -7.776078 10.733880 -13.156756 26.417994 -4.734150 -8.326780 2.247740 -10.266085 -2.896934 1.883660 -38.461214 -10.725403 -2.554858 1.000569 -63.029491 -1.075470 -3.841208 3.508217 0.001270 0.502310 -0.357020 0.295670 9.261365 0.716318 4.159369 54.289300 10.109268 -7.661328 0.381289 65.192663 -3.435708 1.736615 -1.907116 -0.160460 0.190680 0.060910 0.073430 
-0.380720 16.555400 -1.791410 -8.067343 1.531444 3.473070 -15.061745 10.590345 4.950186 13.249239 -6.564416 -39.477075 -13.309225 18.884891 51.578324 0.841381 11.564606 0.727961 0.146190 -0.078970 -0.041530 18.716441 -10.847779 2.215251 -3.025585 3.581396 -19.094283 7.150987 -9.541433 36.018157 -0.402851 -6.189948 2.299438 0.064740 0.704600 0.270000 -4.427179 1.862913 -7.903292 12.061806 5.042939 8.384190 3.001391 4.923564 7.052021 0.631148 5.993622 -7.749192 10.079010 -12.813578 26.997219 -4.678690 -8.234300 2.738780 -11.147354 -2.884682 1.835453 -39.952258 -10.889991 -2.446960 1.792530 -64.582259 -1.724027 -3.863209 3.421839 0.064650 0.503940 -0.389140 0.262400 9.940256 1.197166 4.108142 52.970804 9.591570 -8.181739 -1.025736 62.595903 -3.661025 1.730140 -1.806131 -0.236380 0.231260 0.122100 0.030760 
-0.338970 16.501470 -1.806110 -7.993055 1.259478 2.808105 -15.086500 10.291973 5.348439 16.683962 -6.185601 -40.361842 -17.458590 22.324697 52.627115 1.051480 12.654700 0.394155 0.081920 -0.209240 -0.019050 18.726353 -10.622862 2.208729 -4.748566 4.088252 -19.864993 8.855844 -11.132687 38.644748 -0.512237 -6.754771 2.082182 -0.000640 0.685560 0.251390 -4.415505 1.860751 -8.269345 13.003173 4.689812 10.247958 2.890994 5.228384 5.767913 0.705354 5.762497 -7.888629 9.640485 -12.239884 28.804392 -4.681440 -7.613640 2.796580 -12.221817 -3.028024 1.925969 -42.460517 -11.084801 -2.513913 3.516130 -66.307578 -3.094992 -3.856336 3.317876 0.157540 0.472190 -0.389320 0.198860 10.691927 1.919640 4.065240 51.621480 9.220870 -8.596355 -3.522335 57.860785 -4.107168 1.749549 -1.664005 -0.296840 0.245220 0.182950 -0.033560 
-0.298590 16.464220 -1.817420 -7.906712 1.023782 1.659741 -15.113444 10.108788 5.683623 20.044502 -5.443131 -40.318722 -21.173643 25.337193 52.896336 1.244604 13.408745 0.165000 0.058780 -0.269300 0.027090 18.713881 -10.458407 2.198801 -6.367123 4.326430 -19.705002 10.346245 -12.480680 40.342351 -0.633725 -7.163671 1.931763 -0.052410 0.630600 0.218080 -4.367474 1.799904 -8.616740 13.757750 4.329472 12.494140 3.024238 5.621601 4.731497 0.765117 5.534421 -8.304861 9.275679 -11.511953 31.691067 -3.836090 -6.995130 1.925990 -13.136437 -3.364347 2.349966 -45.529772 -10.579446 -3.145794 5.861130 -69.361242 -5.319794 -3.785625 3.209770 0.260040 0.401220 -0.345290 0.150850 11.351633 2.995840 4.101514 50.159209 9.014380 -8.640294 -5.746931 51.628176 -4.172576 1.809231 -1.511838 -0.325700 0.265810 0.203050 -0.081760 
-0.247620 16.430800 -1.827050 -7.275259 1.221129 0.936582 -15.174180 9.908504 6.014855 22.796346 -4.973683 -40.490440 -25.231772 28.111679 52.441618 1.480208 13.921152 0.019624 0.091020 -0.230630 0.057540 18.682400 -10.279052 2.148937 -8.401196 4.341559 -19.992442 11.439887 -13.748794 41.947666 -0.760833 -7.579875 1.772940 -0.070280 0.561520 0.234080 -4.243196 1.701624 -8.870986 13.345999 3.988719 13.837334 3.326404 5.666742 4.173483 0.911049 5.529343 -8.765092 9.419767 -11.107418 33.849446 -3.191120 -6.312520 1.613630 -13.799785 -3.636833 2.958301 -48.593476 -9.791533 -3.982878 9.005844 -73.607296 -8.594740 -3.694839 3.209671 0.293380 0.348140 -0.278210 0.152650 11.717236 3.722256 4.052697 49.425107 8.962029 -8.105308 -7.750292 45.156188 -4.136516 1.892931 -1.463310 -0.277260 0.220210 0.168480 -0.080770 
-0.193570 16.427310 -1.828660 -6.671885 1.634125 0.150973 -15.220263 9.869837 6.185626 24.656397 -4.689715 -39.861904 -27.871875 29.493015 51.478518 1.566570 14.080107 -0.043288 0.095650 -0.234730 0.085930 18.638032 -10.206443 2.104713 -9.893005 4.109599 -19.851029 11.899303 -14.521244 42.790488 -0.828614 -7.808016 1.679654 -0.096060 0.504150 0.243880 -4.117049 1.568792 -9.024805 12.967525 3.702088 14.843390 3.599601 5.739056 3.551939 1.246097 5.459198 -9.133822 9.512082 -10.901745 36.257191 -3.366100 -5.497560 1.683530 -15.148721 -3.799053 3.275659 -51.626435 -9.646033 -4.390291 13.376575 -76.662910 -12.814905 -3.641614 3.142720 0.332310 0.312550 -0.235380 0.129200 12.414398 4.377968 4.144709 48.448821 8.444530 -7.317876 -9.189333 38.187796 -3.791238 1.974825 -1.410079 -0.255790 0.185740 0.165770 -0.101370 
-0.135900 16.434460 -1.822750 -6.125798 2.064853 -0.144122 -15.255549 9.858795 6.333070 26.362356 -4.450478 -39.227294 -30.377626 30.492929 50.111318 1.585627 14.183355 -0.063995 0.061060 -0.304530 0.101680 18.612336 -10.167156 2.015780 -10.591659 3.791554 -19.912535 11.064008 -14.558074 43.495962 -0.824558 -7.843516 1.669119 -0.131790 0.508730 0.234370 -4.034389 1.426899 -9.101483 12.718051 3.228209 15.000674 3.731925 5.443458 3.222354 1.505792 5.144691 -9.349839 9.066296 -10.484296 38.120848 -3.839410 -4.775070 2.269760 -16.061844 -3.696605 3.603606 -54.857828 -9.199255 -4.907059 18.252474 -78.935972 -17.643058 -3.632223 3.000581 0.376670 0.309910 -0.238480 0.103880 12.844221 4.642388 4.036389 47.770662 8.358414 -6.111443 -9.656758 31.100902 -3.158757 2.049410 -1.337444 -0.291530 0.205600 0.193670 -0.133540 
